<svg xmlns="http://www.w3.org/2000/svg" xmlns:xlink="http://www.w3.org/1999/xlink" viewBox="0 0 1024 1024"><defs><style>.cls-1{fill:none;}.cls-2{clip-path:url(#clip-path);}.cls-3{fill:#fff;}.cls-4{fill:#03a9f4;}.cls-5{fill:#2196f3;}</style><clipPath id="clip-path"><circle class="cls-1" cx="512" cy="512" r="512"/></clipPath></defs><g id="Layer_2" data-name="Layer 2"><g id="Layer_1-2" data-name="Layer 1"><g class="cls-2"><rect class="cls-3" width="1024" height="1024"/><path class="cls-4" d="M275,344.54c3.86-9.32,15-11.86,22.33-10.63,2.81.48,8.2,2,15.5,10.7,12.26,14.58,15.55,32.2,16.41,43.68-9.88-14.8-19.31-19.18-26.15-20.42-9.76-1.76-15.91,2.58-22.31-2C275,361.79,271.72,352.4,275,344.54Z"/><path class="cls-4" d="M414.69,301C407.05,287.69,389.78,286,379,289.34c-4.15,1.27-12,4.66-21.26,19.18-15.62,24.38-17.12,51.58-16.16,69.06,12-24.25,25.34-32.71,35.41-35.91,14.36-4.57,24.49.76,33.24-7.37C418,327,421.15,312.19,414.69,301Z"/><path class="cls-4" d="M1024,673c-42.67,0-42.67,40-85.34,40S896,673,853.32,673,810.65,713,768,713s-42.67-40-85.34-40S640,713,597.32,713,554.65,673,512,673s-42.67,40-85.34,40S384,673,341.32,673,298.66,713,256,713s-42.66-40-85.33-40S128,713,85.33,713,42.67,673,0,673v351H1024Z"/><path class="cls-5" d="M227,678.41c9.71,9.1,15.57,14.59,29,14.59s19.28-5.49,29-14.59c11.44-10.72,27.1-25.41,56.34-25.41s44.91,14.69,56.35,25.41c9.7,9.1,15.56,14.59,29,14.59s19.29-5.49,29-14.59C467.08,667.69,482.75,653,512,653s44.91,14.69,56.34,25.41c9.71,9.1,15.57,14.59,29,14.59s19.28-5.49,29-14.59c11.44-10.72,27.1-25.41,56.34-25.41,1.38,0,2.72,0,4,.11,65.56-50,100.56-109.31,114.52-135.59,6.45.35,39.07,1.49,64.79-22.87a84.34,84.34,0,0,0,22.87-38.11,71.22,71.22,0,0,1-15.25,3.81c-20.92,2.81-31.59-5.46-53.35-3.81a81,81,0,0,0-19.06,3.81,72.25,72.25,0,0,0-11.43-15.24c-14.46-14.67-27.69-15.08-45.73-30.49a103.44,103.44,0,0,1-11.44-11.44c-2.2,5.27-13.5,33.71,0,64.79a82.5,82.5,0,0,0,34.3,38.11c-55.27,48-97.8,55.31-127,52.46-66-6.44-78-65-190.33-117.44C377.61,407.5,331.92,408,315.91,408.7c-27.37,1.28-75,3.52-109.34,36.45-51.64,49.59-48.12,152.49-2.29,215.87C213.89,666.13,221,672.81,227,678.41ZM294,530a16,16,0,1,1-16,16A16,16,0,0,1,294,530Z"/></g></g></g></svg>